<?xml version="1.0" encoding="UTF-8" standalone="no"?>
<!DOCTYPE svg PUBLIC "-//W3C//DTD SVG 1.1//EN"
 "http://www.w3.org/Graphics/SVG/1.1/DTD/svg11.dtd">
<!-- Generated by graphviz version 2.26.3 (20100126.1600)
 -->
<!-- Title: controllers_diagram Pages: 1 -->
<svg width="711pt" height="533pt"
 viewBox="0.00 0.00 711.00 533.12" xmlns="http://www.w3.org/2000/svg" xmlns:xlink="http://www.w3.org/1999/xlink">
<g id="graph1" class="graph" transform="scale(1 1) rotate(0) translate(4 529.124)">
<title>controllers_diagram</title>
<polygon fill="white" stroke="white" points="-4,5 -4,-529.124 708,-529.124 708,5 -4,5"/>
<!-- _diagram_info -->
<g id="node1" class="node"><title>_diagram_info</title>
<text text-anchor="start" x="460" y="-365.3" font-family="Times Roman,serif" font-size="13.00">Controllers diagram</text>
<text text-anchor="start" x="460" y="-348.3" font-family="Times Roman,serif" font-size="13.00">Date: Apr 14 2013 &#45; 10:38</text>
<text text-anchor="start" x="460" y="-331.3" font-family="Times Roman,serif" font-size="13.00">Migration version: 20130330014356</text>
<text text-anchor="start" x="460" y="-314.3" font-family="Times Roman,serif" font-size="13.00">Generated by RailRoady 1.1.0</text>
<text text-anchor="start" x="460" y="-297.3" font-family="Times Roman,serif" font-size="13.00">http://railroady.prestonlee.com</text>
</g>
<!-- GroupsController -->
<g id="node2" class="node"><title>GroupsController</title>
<polyline fill="none" stroke="black" points="13,-34.0968 124,-34.0968 "/>
<path fill="none" stroke="black" d="M124,-34.0968C130,-34.0968 136,-40.0968 136,-46.0968"/>
<polyline fill="none" stroke="black" points="136,-46.0968 136,-212.097 "/>
<path fill="none" stroke="black" d="M136,-212.097C136,-218.097 130,-224.097 124,-224.097"/>
<polyline fill="none" stroke="black" points="124,-224.097 13,-224.097 "/>
<path fill="none" stroke="black" d="M13,-224.097C7,-224.097 1,-218.097 1,-212.097"/>
<polyline fill="none" stroke="black" points="1,-212.097 1,-46.0968 "/>
<path fill="none" stroke="black" d="M1,-46.0968C1,-40.0968 7,-34.0968 13,-34.0968"/>
<text text-anchor="middle" x="68.5" y="-207.497" font-family="Times Roman,serif" font-size="14.00">GroupsController</text>
<polyline fill="none" stroke="black" points="1,-198.097 136,-198.097 "/>
<text text-anchor="start" x="9" y="-181.497" font-family="Times Roman,serif" font-size="14.00">create</text>
<text text-anchor="start" x="9" y="-163.497" font-family="Times Roman,serif" font-size="14.00">destroy</text>
<text text-anchor="start" x="9" y="-145.497" font-family="Times Roman,serif" font-size="14.00">index</text>
<text text-anchor="start" x="9" y="-127.497" font-family="Times Roman,serif" font-size="14.00">new</text>
<text text-anchor="start" x="9" y="-109.497" font-family="Times Roman,serif" font-size="14.00">show</text>
<text text-anchor="start" x="9" y="-91.4968" font-family="Times Roman,serif" font-size="14.00">update</text>
<polyline fill="none" stroke="black" points="1,-82.0968 136,-82.0968 "/>
<polyline fill="none" stroke="black" points="1,-58.0968 136,-58.0968 "/>
</g>
<!-- ApplicationController -->
<g id="node3" class="node"><title>ApplicationController</title>
<polyline fill="none" stroke="black" points="52.0288,-307.883 189.029,-307.883 "/>
<path fill="none" stroke="black" d="M189.029,-307.883C195.029,-307.883 201.029,-313.883 201.029,-319.883"/>
<polyline fill="none" stroke="black" points="201.029,-319.883 201.029,-393.883 "/>
<path fill="none" stroke="black" d="M201.029,-393.883C201.029,-399.883 195.029,-405.883 189.029,-405.883"/>
<polyline fill="none" stroke="black" points="189.029,-405.883 52.0288,-405.883 "/>
<path fill="none" stroke="black" d="M52.0288,-405.883C46.0288,-405.883 40.0288,-399.883 40.0288,-393.883"/>
<polyline fill="none" stroke="black" points="40.0288,-393.883 40.0288,-319.883 "/>
<path fill="none" stroke="black" d="M40.0288,-319.883C40.0288,-313.883 46.0288,-307.883 52.0288,-307.883"/>
<text text-anchor="middle" x="120.529" y="-389.283" font-family="Times Roman,serif" font-size="14.00">ApplicationController</text>
<polyline fill="none" stroke="black" points="40.0288,-379.883 201.029,-379.883 "/>
<polyline fill="none" stroke="black" points="40.0288,-355.883 201.029,-355.883 "/>
<polyline fill="none" stroke="black" points="40.0288,-331.883 201.029,-331.883 "/>
</g>
<!-- ApplicationController&#45;&gt;GroupsController -->
<g id="edge2" class="edge"><title>ApplicationController&#45;&gt;GroupsController</title>
<path fill="none" stroke="black" d="M109.303,-307.737C103.747,-283.411 96.8427,-253.183 90.3032,-224.553"/>
</g>
<!-- MemosController -->
<g id="node4" class="node"><title>MemosController</title>
<polyline fill="none" stroke="black" points="236.931,-1.5 450.931,-1.5 "/>
<path fill="none" stroke="black" d="M450.931,-1.5C456.931,-1.5 462.931,-7.5 462.931,-13.5"/>
<polyline fill="none" stroke="black" points="462.931,-13.5 462.931,-215.5 "/>
<path fill="none" stroke="black" d="M462.931,-215.5C462.931,-221.5 456.931,-227.5 450.931,-227.5"/>
<polyline fill="none" stroke="black" points="450.931,-227.5 236.931,-227.5 "/>
<path fill="none" stroke="black" d="M236.931,-227.5C230.931,-227.5 224.931,-221.5 224.931,-215.5"/>
<polyline fill="none" stroke="black" points="224.931,-215.5 224.931,-13.5 "/>
<path fill="none" stroke="black" d="M224.931,-13.5C224.931,-7.5 230.931,-1.5 236.931,-1.5"/>
<text text-anchor="middle" x="343.931" y="-210.9" font-family="Times Roman,serif" font-size="14.00">MemosController</text>
<polyline fill="none" stroke="black" points="224.931,-201.5 462.931,-201.5 "/>
<text text-anchor="start" x="232.931" y="-184.9" font-family="Times Roman,serif" font-size="14.00">_one_time_conditions_valid_12?</text>
<text text-anchor="start" x="232.931" y="-166.9" font-family="Times Roman,serif" font-size="14.00">create</text>
<text text-anchor="start" x="232.931" y="-148.9" font-family="Times Roman,serif" font-size="14.00">destroy</text>
<text text-anchor="start" x="232.931" y="-130.9" font-family="Times Roman,serif" font-size="14.00">get_group</text>
<text text-anchor="start" x="232.931" y="-112.9" font-family="Times Roman,serif" font-size="14.00">index</text>
<text text-anchor="start" x="232.931" y="-94.9" font-family="Times Roman,serif" font-size="14.00">new</text>
<text text-anchor="start" x="232.931" y="-76.9" font-family="Times Roman,serif" font-size="14.00">show</text>
<text text-anchor="start" x="232.931" y="-58.9" font-family="Times Roman,serif" font-size="14.00">update</text>
<polyline fill="none" stroke="black" points="224.931,-49.5 462.931,-49.5 "/>
<polyline fill="none" stroke="black" points="224.931,-25.5 462.931,-25.5 "/>
</g>
<!-- ApplicationController&#45;&gt;MemosController -->
<g id="edge4" class="edge"><title>ApplicationController&#45;&gt;MemosController</title>
<path fill="none" stroke="black" d="M165.738,-307.833C187.157,-284.594 213.706,-255.79 239.711,-227.575"/>
</g>
<!-- UsersController -->
<g id="node5" class="node"><title>UsersController</title>
<polyline fill="none" stroke="black" points="269.676,-333.624 369.676,-333.624 "/>
<path fill="none" stroke="black" d="M369.676,-333.624C375.676,-333.624 381.676,-339.624 381.676,-345.624"/>
<polyline fill="none" stroke="black" points="381.676,-345.624 381.676,-511.624 "/>
<path fill="none" stroke="black" d="M381.676,-511.624C381.676,-517.624 375.676,-523.624 369.676,-523.624"/>
<polyline fill="none" stroke="black" points="369.676,-523.624 269.676,-523.624 "/>
<path fill="none" stroke="black" d="M269.676,-523.624C263.676,-523.624 257.676,-517.624 257.676,-511.624"/>
<polyline fill="none" stroke="black" points="257.676,-511.624 257.676,-345.624 "/>
<path fill="none" stroke="black" d="M257.676,-345.624C257.676,-339.624 263.676,-333.624 269.676,-333.624"/>
<text text-anchor="middle" x="319.676" y="-507.024" font-family="Times Roman,serif" font-size="14.00">UsersController</text>
<polyline fill="none" stroke="black" points="257.676,-497.624 381.676,-497.624 "/>
<text text-anchor="start" x="265.676" y="-481.024" font-family="Times Roman,serif" font-size="14.00">create</text>
<text text-anchor="start" x="265.676" y="-463.024" font-family="Times Roman,serif" font-size="14.00">destroy</text>
<text text-anchor="start" x="265.676" y="-445.024" font-family="Times Roman,serif" font-size="14.00">index</text>
<text text-anchor="start" x="265.676" y="-427.024" font-family="Times Roman,serif" font-size="14.00">new</text>
<text text-anchor="start" x="265.676" y="-409.024" font-family="Times Roman,serif" font-size="14.00">show</text>
<text text-anchor="start" x="265.676" y="-391.024" font-family="Times Roman,serif" font-size="14.00">update</text>
<polyline fill="none" stroke="black" points="257.676,-381.624 381.676,-381.624 "/>
<polyline fill="none" stroke="black" points="257.676,-357.624 381.676,-357.624 "/>
</g>
<!-- ApplicationController&#45;&gt;UsersController -->
<g id="edge6" class="edge"><title>ApplicationController&#45;&gt;UsersController</title>
<path fill="none" stroke="black" d="M201.242,-385.959C220.003,-392.718 239.69,-399.81 257.508,-406.229"/>
</g>
</g>
</svg>
