<?xml version="1.0" encoding="UTF-8" standalone="no"?>
<!DOCTYPE svg PUBLIC "-//W3C//DTD SVG 1.1//EN"
 "http://www.w3.org/Graphics/SVG/1.1/DTD/svg11.dtd">
<!-- Generated by graphviz version 2.26.3 (20100126.1600)
 -->
<!-- Title: controllers_diagram Pages: 1 -->
<svg width="896pt" height="792pt"
 viewBox="0.00 0.00 896.00 792.00" xmlns="http://www.w3.org/2000/svg" xmlns:xlink="http://www.w3.org/1999/xlink">
<g id="graph1" class="graph" transform="scale(1 1) rotate(0) translate(4 788)">
<title>controllers_diagram</title>
<polygon fill="white" stroke="white" points="-4,5 -4,-788 893,-788 893,5 -4,5"/>
<!-- _diagram_info -->
<g id="node1" class="node"><title>_diagram_info</title>
<text text-anchor="start" x="645" y="-767.3" font-family="Times Roman,serif" font-size="13.00">Controllers diagram</text>
<text text-anchor="start" x="645" y="-750.3" font-family="Times Roman,serif" font-size="13.00">Date: Apr 28 2013 &#45; 11:25</text>
<text text-anchor="start" x="645" y="-733.3" font-family="Times Roman,serif" font-size="13.00">Migration version: 20130414192130</text>
<text text-anchor="start" x="645" y="-716.3" font-family="Times Roman,serif" font-size="13.00">Generated by RailRoady 1.1.0</text>
<text text-anchor="start" x="645" y="-699.3" font-family="Times Roman,serif" font-size="13.00">http://railroady.prestonlee.com</text>
</g>
<!-- GroupsController -->
<g id="node2" class="node"><title>GroupsController</title>
<polyline fill="none" stroke="black" points="82.5608,-18.3903 193.561,-18.3903 "/>
<path fill="none" stroke="black" d="M193.561,-18.3903C199.561,-18.3903 205.561,-24.3903 205.561,-30.3903"/>
<polyline fill="none" stroke="black" points="205.561,-30.3903 205.561,-196.39 "/>
<path fill="none" stroke="black" d="M205.561,-196.39C205.561,-202.39 199.561,-208.39 193.561,-208.39"/>
<polyline fill="none" stroke="black" points="193.561,-208.39 82.5608,-208.39 "/>
<path fill="none" stroke="black" d="M82.5608,-208.39C76.5608,-208.39 70.5608,-202.39 70.5608,-196.39"/>
<polyline fill="none" stroke="black" points="70.5608,-196.39 70.5608,-30.3903 "/>
<path fill="none" stroke="black" d="M70.5608,-30.3903C70.5608,-24.3903 76.5608,-18.3903 82.5608,-18.3903"/>
<text text-anchor="middle" x="138.061" y="-191.79" font-family="Times Roman,serif" font-size="14.00">GroupsController</text>
<polyline fill="none" stroke="black" points="70.5608,-182.39 205.561,-182.39 "/>
<text text-anchor="start" x="78.5608" y="-165.79" font-family="Times Roman,serif" font-size="14.00">create</text>
<text text-anchor="start" x="78.5608" y="-147.79" font-family="Times Roman,serif" font-size="14.00">destroy</text>
<text text-anchor="start" x="78.5608" y="-129.79" font-family="Times Roman,serif" font-size="14.00">index</text>
<text text-anchor="start" x="78.5608" y="-111.79" font-family="Times Roman,serif" font-size="14.00">new</text>
<text text-anchor="start" x="78.5608" y="-93.7903" font-family="Times Roman,serif" font-size="14.00">show</text>
<text text-anchor="start" x="78.5608" y="-75.7903" font-family="Times Roman,serif" font-size="14.00">update</text>
<polyline fill="none" stroke="black" points="70.5608,-66.3903 205.561,-66.3903 "/>
<polyline fill="none" stroke="black" points="70.5608,-42.3903 205.561,-42.3903 "/>
</g>
<!-- UserReadMemosController -->
<g id="node3" class="node"><title>UserReadMemosController</title>
<polyline fill="none" stroke="black" points="390.397,-1.5 605.397,-1.5 "/>
<path fill="none" stroke="black" d="M605.397,-1.5C611.397,-1.5 617.397,-7.5 617.397,-13.5"/>
<polyline fill="none" stroke="black" points="617.397,-13.5 617.397,-215.5 "/>
<path fill="none" stroke="black" d="M617.397,-215.5C617.397,-221.5 611.397,-227.5 605.397,-227.5"/>
<polyline fill="none" stroke="black" points="605.397,-227.5 390.397,-227.5 "/>
<path fill="none" stroke="black" d="M390.397,-227.5C384.397,-227.5 378.397,-221.5 378.397,-215.5"/>
<polyline fill="none" stroke="black" points="378.397,-215.5 378.397,-13.5 "/>
<path fill="none" stroke="black" d="M378.397,-13.5C378.397,-7.5 384.397,-1.5 390.397,-1.5"/>
<text text-anchor="middle" x="497.897" y="-210.9" font-family="Times Roman,serif" font-size="14.00">UserReadMemosController</text>
<polyline fill="none" stroke="black" points="378.397,-201.5 617.397,-201.5 "/>
<text text-anchor="start" x="386.397" y="-184.9" font-family="Times Roman,serif" font-size="14.00">_one_time_conditions_valid_12?</text>
<text text-anchor="start" x="386.397" y="-166.9" font-family="Times Roman,serif" font-size="14.00">create</text>
<text text-anchor="start" x="386.397" y="-148.9" font-family="Times Roman,serif" font-size="14.00">destroy</text>
<text text-anchor="start" x="386.397" y="-130.9" font-family="Times Roman,serif" font-size="14.00">get_user_and_group_and_memo</text>
<text text-anchor="start" x="386.397" y="-112.9" font-family="Times Roman,serif" font-size="14.00">index</text>
<text text-anchor="start" x="386.397" y="-94.9" font-family="Times Roman,serif" font-size="14.00">new</text>
<text text-anchor="start" x="386.397" y="-76.9" font-family="Times Roman,serif" font-size="14.00">show</text>
<text text-anchor="start" x="386.397" y="-58.9" font-family="Times Roman,serif" font-size="14.00">update</text>
<polyline fill="none" stroke="black" points="378.397,-49.5 617.397,-49.5 "/>
<polyline fill="none" stroke="black" points="378.397,-25.5 617.397,-25.5 "/>
</g>
<!-- ApplicationController -->
<g id="node4" class="node"><title>ApplicationController</title>
<polyline fill="none" stroke="black" points="250.624,-264.907 387.624,-264.907 "/>
<path fill="none" stroke="black" d="M387.624,-264.907C393.624,-264.907 399.624,-270.907 399.624,-276.907"/>
<polyline fill="none" stroke="black" points="399.624,-276.907 399.624,-350.907 "/>
<path fill="none" stroke="black" d="M399.624,-350.907C399.624,-356.907 393.624,-362.907 387.624,-362.907"/>
<polyline fill="none" stroke="black" points="387.624,-362.907 250.624,-362.907 "/>
<path fill="none" stroke="black" d="M250.624,-362.907C244.624,-362.907 238.624,-356.907 238.624,-350.907"/>
<polyline fill="none" stroke="black" points="238.624,-350.907 238.624,-276.907 "/>
<path fill="none" stroke="black" d="M238.624,-276.907C238.624,-270.907 244.624,-264.907 250.624,-264.907"/>
<text text-anchor="middle" x="319.124" y="-346.307" font-family="Times Roman,serif" font-size="14.00">ApplicationController</text>
<polyline fill="none" stroke="black" points="238.624,-336.907 399.624,-336.907 "/>
<polyline fill="none" stroke="black" points="238.624,-312.907 399.624,-312.907 "/>
<polyline fill="none" stroke="black" points="238.624,-288.907 399.624,-288.907 "/>
</g>
<!-- ApplicationController&#45;&gt;GroupsController -->
<g id="edge2" class="edge"><title>ApplicationController&#45;&gt;GroupsController</title>
<path fill="none" stroke="black" d="M274.831,-264.855C254.101,-241.898 228.951,-214.046 205.898,-188.517"/>
</g>
<!-- ApplicationController&#45;&gt;UserReadMemosController -->
<g id="edge4" class="edge"><title>ApplicationController&#45;&gt;UserReadMemosController</title>
<path fill="none" stroke="black" d="M363.085,-264.871C373.424,-253.339 384.867,-240.576 396.588,-227.502"/>
</g>
<!-- MemosController -->
<g id="node5" class="node"><title>MemosController</title>
<polyline fill="none" stroke="black" points="204.313,-476.452 418.313,-476.452 "/>
<path fill="none" stroke="black" d="M418.313,-476.452C424.313,-476.452 430.313,-482.452 430.313,-488.452"/>
<polyline fill="none" stroke="black" points="430.313,-488.452 430.313,-690.452 "/>
<path fill="none" stroke="black" d="M430.313,-690.452C430.313,-696.452 424.313,-702.452 418.313,-702.452"/>
<polyline fill="none" stroke="black" points="418.313,-702.452 204.313,-702.452 "/>
<path fill="none" stroke="black" d="M204.313,-702.452C198.313,-702.452 192.313,-696.452 192.313,-690.452"/>
<polyline fill="none" stroke="black" points="192.313,-690.452 192.313,-488.452 "/>
<path fill="none" stroke="black" d="M192.313,-488.452C192.313,-482.452 198.313,-476.452 204.313,-476.452"/>
<text text-anchor="middle" x="311.313" y="-685.852" font-family="Times Roman,serif" font-size="14.00">MemosController</text>
<polyline fill="none" stroke="black" points="192.313,-676.452 430.313,-676.452 "/>
<text text-anchor="start" x="200.313" y="-659.852" font-family="Times Roman,serif" font-size="14.00">_one_time_conditions_valid_14?</text>
<text text-anchor="start" x="200.313" y="-641.852" font-family="Times Roman,serif" font-size="14.00">create</text>
<text text-anchor="start" x="200.313" y="-623.852" font-family="Times Roman,serif" font-size="14.00">destroy</text>
<text text-anchor="start" x="200.313" y="-605.852" font-family="Times Roman,serif" font-size="14.00">get_group</text>
<text text-anchor="start" x="200.313" y="-587.852" font-family="Times Roman,serif" font-size="14.00">index</text>
<text text-anchor="start" x="200.313" y="-569.852" font-family="Times Roman,serif" font-size="14.00">new</text>
<text text-anchor="start" x="200.313" y="-551.852" font-family="Times Roman,serif" font-size="14.00">show</text>
<text text-anchor="start" x="200.313" y="-533.852" font-family="Times Roman,serif" font-size="14.00">update</text>
<polyline fill="none" stroke="black" points="192.313,-524.452 430.313,-524.452 "/>
<polyline fill="none" stroke="black" points="192.313,-500.452 430.313,-500.452 "/>
</g>
<!-- ApplicationController&#45;&gt;MemosController -->
<g id="edge6" class="edge"><title>ApplicationController&#45;&gt;MemosController</title>
<path fill="none" stroke="black" d="M317.727,-363.169C316.834,-394.67 315.638,-436.878 314.52,-476.304"/>
</g>
<!-- UsersController -->
<g id="node6" class="node"><title>UsersController</title>
<polyline fill="none" stroke="black" points="492.66,-393.678 592.66,-393.678 "/>
<path fill="none" stroke="black" d="M592.66,-393.678C598.66,-393.678 604.66,-399.678 604.66,-405.678"/>
<polyline fill="none" stroke="black" points="604.66,-405.678 604.66,-589.678 "/>
<path fill="none" stroke="black" d="M604.66,-589.678C604.66,-595.678 598.66,-601.678 592.66,-601.678"/>
<polyline fill="none" stroke="black" points="592.66,-601.678 492.66,-601.678 "/>
<path fill="none" stroke="black" d="M492.66,-601.678C486.66,-601.678 480.66,-595.678 480.66,-589.678"/>
<polyline fill="none" stroke="black" points="480.66,-589.678 480.66,-405.678 "/>
<path fill="none" stroke="black" d="M480.66,-405.678C480.66,-399.678 486.66,-393.678 492.66,-393.678"/>
<text text-anchor="middle" x="542.66" y="-585.078" font-family="Times Roman,serif" font-size="14.00">UsersController</text>
<polyline fill="none" stroke="black" points="480.66,-575.678 604.66,-575.678 "/>
<text text-anchor="start" x="488.66" y="-559.078" font-family="Times Roman,serif" font-size="14.00">create</text>
<text text-anchor="start" x="488.66" y="-541.078" font-family="Times Roman,serif" font-size="14.00">destroy</text>
<text text-anchor="start" x="488.66" y="-523.078" font-family="Times Roman,serif" font-size="14.00">index</text>
<text text-anchor="start" x="488.66" y="-505.078" font-family="Times Roman,serif" font-size="14.00">login</text>
<text text-anchor="start" x="488.66" y="-487.078" font-family="Times Roman,serif" font-size="14.00">new</text>
<text text-anchor="start" x="488.66" y="-469.078" font-family="Times Roman,serif" font-size="14.00">show</text>
<text text-anchor="start" x="488.66" y="-451.078" font-family="Times Roman,serif" font-size="14.00">update</text>
<polyline fill="none" stroke="black" points="480.66,-441.678 604.66,-441.678 "/>
<polyline fill="none" stroke="black" points="480.66,-417.678 604.66,-417.678 "/>
</g>
<!-- ApplicationController&#45;&gt;UsersController -->
<g id="edge8" class="edge"><title>ApplicationController&#45;&gt;UsersController</title>
<path fill="none" stroke="black" d="M378.734,-362.913C410.162,-388.75 448.683,-420.419 480.485,-446.563"/>
</g>
<!-- MembershipsController -->
<g id="node7" class="node"><title>MembershipsController</title>
<polyline fill="none" stroke="black" points="13,-396.823 165,-396.823 "/>
<path fill="none" stroke="black" d="M165,-396.823C171,-396.823 177,-402.823 177,-408.823"/>
<polyline fill="none" stroke="black" points="177,-408.823 177,-574.823 "/>
<path fill="none" stroke="black" d="M177,-574.823C177,-580.823 171,-586.823 165,-586.823"/>
<polyline fill="none" stroke="black" points="165,-586.823 13,-586.823 "/>
<path fill="none" stroke="black" d="M13,-586.823C7,-586.823 1,-580.823 1,-574.823"/>
<polyline fill="none" stroke="black" points="1,-574.823 1,-408.823 "/>
<path fill="none" stroke="black" d="M1,-408.823C1,-402.823 7,-396.823 13,-396.823"/>
<text text-anchor="middle" x="89" y="-570.223" font-family="Times Roman,serif" font-size="14.00">MembershipsController</text>
<polyline fill="none" stroke="black" points="1,-560.823 177,-560.823 "/>
<text text-anchor="start" x="9" y="-544.223" font-family="Times Roman,serif" font-size="14.00">create</text>
<text text-anchor="start" x="9" y="-526.223" font-family="Times Roman,serif" font-size="14.00">destroy</text>
<text text-anchor="start" x="9" y="-508.223" font-family="Times Roman,serif" font-size="14.00">index</text>
<text text-anchor="start" x="9" y="-490.223" font-family="Times Roman,serif" font-size="14.00">new</text>
<text text-anchor="start" x="9" y="-472.223" font-family="Times Roman,serif" font-size="14.00">show</text>
<text text-anchor="start" x="9" y="-454.223" font-family="Times Roman,serif" font-size="14.00">update</text>
<polyline fill="none" stroke="black" points="1,-444.823 177,-444.823 "/>
<polyline fill="none" stroke="black" points="1,-420.823 177,-420.823 "/>
</g>
<!-- ApplicationController&#45;&gt;MembershipsController -->
<g id="edge10" class="edge"><title>ApplicationController&#45;&gt;MembershipsController</title>
<path fill="none" stroke="black" d="M255.632,-362.994C231.419,-381.714 203.365,-403.404 177.26,-423.587"/>
</g>
</g>
</svg>
