<?xml version="1.0" encoding="UTF-8" standalone="no"?>
<!DOCTYPE svg PUBLIC "-//W3C//DTD SVG 1.1//EN"
 "http://www.w3.org/Graphics/SVG/1.1/DTD/svg11.dtd">
<!-- Generated by graphviz version 2.26.3 (20100126.1600)
 -->
<!-- Title: models_diagram Pages: 1 -->
<svg width="540pt" height="548pt"
 viewBox="0.00 0.00 540.00 548.00" xmlns="http://www.w3.org/2000/svg" xmlns:xlink="http://www.w3.org/1999/xlink">
<g id="graph1" class="graph" transform="scale(1 1) rotate(0) translate(4 544)">
<title>models_diagram</title>
<polygon fill="white" stroke="white" points="-4,5 -4,-544 537,-544 537,5 -4,5"/>
<!-- _diagram_info -->
<g id="node1" class="node"><title>_diagram_info</title>
<text text-anchor="start" x="8" y="-489.8" font-family="Times Roman,serif" font-size="13.00">Models diagram</text>
<text text-anchor="start" x="8" y="-472.8" font-family="Times Roman,serif" font-size="13.00">Date: Apr 14 2013 &#45; 10:37</text>
<text text-anchor="start" x="8" y="-455.8" font-family="Times Roman,serif" font-size="13.00">Migration version: 20130330014356</text>
<text text-anchor="start" x="8" y="-438.8" font-family="Times Roman,serif" font-size="13.00">Generated by RailRoady 1.1.0</text>
<text text-anchor="start" x="8" y="-421.8" font-family="Times Roman,serif" font-size="13.00">http://railroady.prestonlee.com</text>
</g>
<!-- Membership -->
<g id="node2" class="node"><title>Membership</title>
<polyline fill="none" stroke="black" points="188.5,-19 329.5,-19 "/>
<path fill="none" stroke="black" d="M329.5,-19C335.5,-19 341.5,-25 341.5,-31"/>
<polyline fill="none" stroke="black" points="341.5,-31 341.5,-149 "/>
<path fill="none" stroke="black" d="M341.5,-149C341.5,-155 335.5,-161 329.5,-161"/>
<polyline fill="none" stroke="black" points="329.5,-161 188.5,-161 "/>
<path fill="none" stroke="black" d="M188.5,-161C182.5,-161 176.5,-155 176.5,-149"/>
<polyline fill="none" stroke="black" points="176.5,-149 176.5,-31 "/>
<path fill="none" stroke="black" d="M176.5,-31C176.5,-25 182.5,-19 188.5,-19"/>
<text text-anchor="middle" x="259" y="-144.4" font-family="Times Roman,serif" font-size="14.00">Membership</text>
<polyline fill="none" stroke="black" points="176.5,-135 341.5,-135 "/>
<text text-anchor="start" x="184.5" y="-118.4" font-family="Times Roman,serif" font-size="14.00">id :integer</text>
<text text-anchor="start" x="184.5" y="-100.4" font-family="Times Roman,serif" font-size="14.00">user_id :integer</text>
<text text-anchor="start" x="184.5" y="-82.4" font-family="Times Roman,serif" font-size="14.00">group_id :integer</text>
<text text-anchor="start" x="184.5" y="-64.4" font-family="Times Roman,serif" font-size="14.00">admin :boolean</text>
<text text-anchor="start" x="184.5" y="-46.4" font-family="Times Roman,serif" font-size="14.00">created_at :datetime</text>
<text text-anchor="start" x="184.5" y="-28.4" font-family="Times Roman,serif" font-size="14.00">updated_at :datetime</text>
</g>
<!-- User -->
<g id="node3" class="node"><title>User</title>
<polyline fill="none" stroke="black" points="279.5,-379 420.5,-379 "/>
<path fill="none" stroke="black" d="M420.5,-379C426.5,-379 432.5,-385 432.5,-391"/>
<polyline fill="none" stroke="black" points="432.5,-391 432.5,-527 "/>
<path fill="none" stroke="black" d="M432.5,-527C432.5,-533 426.5,-539 420.5,-539"/>
<polyline fill="none" stroke="black" points="420.5,-539 279.5,-539 "/>
<path fill="none" stroke="black" d="M279.5,-539C273.5,-539 267.5,-533 267.5,-527"/>
<polyline fill="none" stroke="black" points="267.5,-527 267.5,-391 "/>
<path fill="none" stroke="black" d="M267.5,-391C267.5,-385 273.5,-379 279.5,-379"/>
<text text-anchor="middle" x="350" y="-522.4" font-family="Times Roman,serif" font-size="14.00">User</text>
<polyline fill="none" stroke="black" points="267.5,-513 432.5,-513 "/>
<text text-anchor="start" x="275.5" y="-496.4" font-family="Times Roman,serif" font-size="14.00">id :integer</text>
<text text-anchor="start" x="275.5" y="-478.4" font-family="Times Roman,serif" font-size="14.00">first_name :string</text>
<text text-anchor="start" x="275.5" y="-460.4" font-family="Times Roman,serif" font-size="14.00">last_name :string</text>
<text text-anchor="start" x="275.5" y="-442.4" font-family="Times Roman,serif" font-size="14.00">email :string</text>
<text text-anchor="start" x="275.5" y="-424.4" font-family="Times Roman,serif" font-size="14.00">password :string</text>
<text text-anchor="start" x="275.5" y="-406.4" font-family="Times Roman,serif" font-size="14.00">created_at :datetime</text>
<text text-anchor="start" x="275.5" y="-388.4" font-family="Times Roman,serif" font-size="14.00">updated_at :datetime</text>
</g>
<!-- User&#45;&gt;Membership -->
<g id="edge2" class="edge"><title>User&#45;&gt;Membership</title>
<path fill="none" stroke="#c9ae1d" d="M272.996,-372.014C267.37,-362.358 262.528,-352.283 259,-342 240.237,-287.315 240.845,-221.939 245.825,-171.481"/>
<ellipse fill="none" stroke="#c9ae1d" cx="275.146" cy="-375.55" rx="4.00002" ry="4.00002"/>
<polygon fill="#c9ae1d" stroke="#c9ae1d" points="245.853,-171.217 251.386,-161.749 246.382,-166.245 246.911,-161.273 246.911,-161.273 246.911,-161.273 246.382,-166.245 242.437,-160.796 245.853,-171.217 245.853,-171.217"/>
</g>
<!-- Memo -->
<g id="node4" class="node"><title>Memo</title>
<polyline fill="none" stroke="black" points="379.5,-1 520.5,-1 "/>
<path fill="none" stroke="black" d="M520.5,-1C526.5,-1 532.5,-7 532.5,-13"/>
<polyline fill="none" stroke="black" points="532.5,-13 532.5,-167 "/>
<path fill="none" stroke="black" d="M532.5,-167C532.5,-173 526.5,-179 520.5,-179"/>
<polyline fill="none" stroke="black" points="520.5,-179 379.5,-179 "/>
<path fill="none" stroke="black" d="M379.5,-179C373.5,-179 367.5,-173 367.5,-167"/>
<polyline fill="none" stroke="black" points="367.5,-167 367.5,-13 "/>
<path fill="none" stroke="black" d="M367.5,-13C367.5,-7 373.5,-1 379.5,-1"/>
<text text-anchor="middle" x="450" y="-162.4" font-family="Times Roman,serif" font-size="14.00">Memo</text>
<polyline fill="none" stroke="black" points="367.5,-153 532.5,-153 "/>
<text text-anchor="start" x="375.5" y="-136.4" font-family="Times Roman,serif" font-size="14.00">id :integer</text>
<text text-anchor="start" x="375.5" y="-118.4" font-family="Times Roman,serif" font-size="14.00">title :string</text>
<text text-anchor="start" x="375.5" y="-100.4" font-family="Times Roman,serif" font-size="14.00">description :string</text>
<text text-anchor="start" x="375.5" y="-82.4" font-family="Times Roman,serif" font-size="14.00">due_date :date</text>
<text text-anchor="start" x="375.5" y="-64.4" font-family="Times Roman,serif" font-size="14.00">group_id :integer</text>
<text text-anchor="start" x="375.5" y="-46.4" font-family="Times Roman,serif" font-size="14.00">user_id :integer</text>
<text text-anchor="start" x="375.5" y="-28.4" font-family="Times Roman,serif" font-size="14.00">created_at :datetime</text>
<text text-anchor="start" x="375.5" y="-10.4" font-family="Times Roman,serif" font-size="14.00">updated_at :datetime</text>
</g>
<!-- User&#45;&gt;Memo -->
<g id="edge6" class="edge"><title>User&#45;&gt;Memo</title>
<path fill="none" stroke="#71b5f3" d="M426.621,-371.879C432.324,-362.25 437.289,-352.218 441,-342 458.545,-293.692 461.89,-236.694 460.37,-189.136"/>
<ellipse fill="none" stroke="#71b5f3" cx="424.444" cy="-375.411" rx="4.00002" ry="4.00002"/>
<polygon fill="#71b5f3" stroke="#71b5f3" points="460.37,-189.13 464.472,-178.96 460.173,-184.134 459.976,-179.138 459.976,-179.138 459.976,-179.138 460.173,-184.134 455.479,-179.315 460.37,-189.13 460.37,-189.13"/>
</g>
<!-- Group -->
<g id="node5" class="node"><title>Group</title>
<polyline fill="none" stroke="black" points="279.5,-217 420.5,-217 "/>
<path fill="none" stroke="black" d="M420.5,-217C426.5,-217 432.5,-223 432.5,-229"/>
<polyline fill="none" stroke="black" points="432.5,-229 432.5,-329 "/>
<path fill="none" stroke="black" d="M432.5,-329C432.5,-335 426.5,-341 420.5,-341"/>
<polyline fill="none" stroke="black" points="420.5,-341 279.5,-341 "/>
<path fill="none" stroke="black" d="M279.5,-341C273.5,-341 267.5,-335 267.5,-329"/>
<polyline fill="none" stroke="black" points="267.5,-329 267.5,-229 "/>
<path fill="none" stroke="black" d="M267.5,-229C267.5,-223 273.5,-217 279.5,-217"/>
<text text-anchor="middle" x="350" y="-324.4" font-family="Times Roman,serif" font-size="14.00">Group</text>
<polyline fill="none" stroke="black" points="267.5,-315 432.5,-315 "/>
<text text-anchor="start" x="275.5" y="-298.4" font-family="Times Roman,serif" font-size="14.00">id :integer</text>
<text text-anchor="start" x="275.5" y="-280.4" font-family="Times Roman,serif" font-size="14.00">name :string</text>
<text text-anchor="start" x="275.5" y="-262.4" font-family="Times Roman,serif" font-size="14.00">expiration :date</text>
<text text-anchor="start" x="275.5" y="-244.4" font-family="Times Roman,serif" font-size="14.00">created_at :datetime</text>
<text text-anchor="start" x="275.5" y="-226.4" font-family="Times Roman,serif" font-size="14.00">updated_at :datetime</text>
</g>
<!-- User&#45;&gt;Group -->
<g id="edge4" class="edge"><title>User&#45;&gt;Group</title>
<path fill="none" stroke="#f46877" d="M350,-368.617C350,-362.778 350,-356.941 350,-351.204"/>
<polygon fill="#f46877" stroke="#f46877" points="350,-368.739 345.5,-378.739 350,-373.739 350,-378.739 350,-378.739 350,-378.739 350,-373.739 354.5,-378.739 350,-368.739 350,-368.739"/>
<polygon fill="#f46877" stroke="#f46877" points="350,-351.007 354.5,-341.007 350,-346.007 350,-341.007 350,-341.007 350,-341.007 350,-346.007 345.5,-341.007 350,-351.007 350,-351.007"/>
</g>
<!-- Group&#45;&gt;Membership -->
<g id="edge8" class="edge"><title>Group&#45;&gt;Membership</title>
<path fill="none" stroke="#c7c58d" d="M316.403,-209.222C310.312,-196.572 303.915,-183.285 297.692,-170.36"/>
<ellipse fill="none" stroke="#c7c58d" cx="318.342" cy="-213.249" rx="4.00002" ry="4.00002"/>
<polygon fill="#c7c58d" stroke="#c7c58d" points="297.536,-170.037 297.253,-159.075 295.367,-165.532 293.198,-161.027 293.198,-161.027 293.198,-161.027 295.367,-165.532 289.144,-162.979 297.536,-170.037 297.536,-170.037"/>
</g>
<!-- Group&#45;&gt;Memo -->
<g id="edge10" class="edge"><title>Group&#45;&gt;Memo</title>
<path fill="none" stroke="#8b39a5" d="M386.663,-209.707C390.353,-202.733 394.148,-195.561 397.958,-188.359"/>
<ellipse fill="none" stroke="#8b39a5" cx="384.753" cy="-213.317" rx="4.00002" ry="4.00002"/>
<polygon fill="#8b39a5" stroke="#8b39a5" points="398.11,-188.073 406.764,-181.338 400.448,-183.653 402.786,-179.234 402.786,-179.234 402.786,-179.234 400.448,-183.653 398.809,-177.129 398.11,-188.073 398.11,-188.073"/>
</g>
</g>
</svg>
