<?xml version="1.0" encoding="UTF-8" standalone="no"?>
<!DOCTYPE svg PUBLIC "-//W3C//DTD SVG 1.1//EN"
 "http://www.w3.org/Graphics/SVG/1.1/DTD/svg11.dtd">
<!-- Generated by graphviz version 2.26.3 (20100126.1600)
 -->
<!-- Title: models_diagram Pages: 1 -->
<svg width="456pt" height="324pt"
 viewBox="0.00 0.00 456.00 324.00" xmlns="http://www.w3.org/2000/svg" xmlns:xlink="http://www.w3.org/1999/xlink">
<g id="graph1" class="graph" transform="scale(1 1) rotate(0) translate(4 320)">
<title>models_diagram</title>
<polygon fill="white" stroke="white" points="-4,5 -4,-320 453,-320 453,5 -4,5"/>
<!-- _diagram_info -->
<g id="node1" class="node"><title>_diagram_info</title>
<text text-anchor="start" x="8" y="-299.8" font-family="Times Roman,serif" font-size="13.00">Models diagram</text>
<text text-anchor="start" x="8" y="-282.8" font-family="Times Roman,serif" font-size="13.00">Date: Apr 28 2013 &#45; 11:25</text>
<text text-anchor="start" x="8" y="-265.8" font-family="Times Roman,serif" font-size="13.00">Migration version: 20130414192130</text>
<text text-anchor="start" x="8" y="-248.8" font-family="Times Roman,serif" font-size="13.00">Generated by RailRoady 1.1.0</text>
<text text-anchor="start" x="8" y="-231.8" font-family="Times Roman,serif" font-size="13.00">http://railroady.prestonlee.com</text>
</g>
<!-- Membership -->
<g id="node2" class="node"><title>Membership</title>
<ellipse fill="none" stroke="black" cx="198" cy="-93" rx="70.2092" ry="18.3848"/>
<text text-anchor="middle" x="198" y="-89.4" font-family="Times Roman,serif" font-size="14.00">Membership</text>
</g>
<!-- User -->
<g id="node3" class="node"><title>User</title>
<ellipse fill="none" stroke="black" cx="302" cy="-269" rx="33.9411" ry="18.3848"/>
<text text-anchor="middle" x="302" y="-265.4" font-family="Times Roman,serif" font-size="14.00">User</text>
</g>
<!-- User&#45;&gt;Membership -->
<g id="edge2" class="edge"><title>User&#45;&gt;Membership</title>
<path fill="none" stroke="#665ddc" d="M281.735,-245.735C274.727,-237.995 266.697,-229.452 259,-222 241.336,-204.899 229.468,-207.189 217,-186 205.506,-166.466 200.878,-141.079 199.057,-121.766"/>
<ellipse fill="none" stroke="#665ddc" cx="284.683" cy="-249.027" rx="4.00002" ry="4.00002"/>
<polygon fill="#665ddc" stroke="#665ddc" points="199.052,-121.709 202.795,-111.402 198.68,-116.723 198.307,-111.737 198.307,-111.737 198.307,-111.737 198.68,-116.723 193.82,-112.072 199.052,-121.709 199.052,-121.709"/>
</g>
<!-- Memo -->
<g id="node4" class="node"><title>Memo</title>
<ellipse fill="none" stroke="black" cx="327" cy="-93" rx="41.0122" ry="18.3848"/>
<text text-anchor="middle" x="327" y="-89.4" font-family="Times Roman,serif" font-size="14.00">Memo</text>
</g>
<!-- User&#45;&gt;Memo -->
<g id="edge6" class="edge"><title>User&#45;&gt;Memo</title>
<path fill="none" stroke="#d3a8e7" d="M307.272,-242.592C310.395,-226.322 314.264,-205.007 317,-186 320.094,-164.502 322.685,-140.082 324.454,-121.661"/>
<ellipse fill="none" stroke="#d3a8e7" cx="306.479" cy="-246.674" rx="4.00001" ry="4.00001"/>
<polygon fill="#d3a8e7" stroke="#d3a8e7" points="324.466,-121.533 329.878,-111.996 324.932,-116.555 325.398,-111.576 325.398,-111.576 325.398,-111.576 324.932,-116.555 320.917,-111.157 324.466,-121.533 324.466,-121.533"/>
</g>
<!-- Group -->
<g id="node5" class="node"><title>Group</title>
<ellipse fill="none" stroke="black" cx="267" cy="-167" rx="41.2167" ry="18.3848"/>
<text text-anchor="middle" x="267" y="-163.4" font-family="Times Roman,serif" font-size="14.00">Group</text>
</g>
<!-- User&#45;&gt;Group -->
<g id="edge4" class="edge"><title>User&#45;&gt;Group</title>
<path fill="none" stroke="#16d769" d="M292.382,-240.969C287.494,-226.725 281.57,-209.46 276.674,-195.194"/>
<polygon fill="#16d769" stroke="#16d769" points="292.497,-241.306 291.486,-252.225 294.12,-246.035 295.743,-250.764 295.743,-250.764 295.743,-250.764 294.12,-246.035 299.999,-249.304 292.497,-241.306 292.497,-241.306"/>
<polygon fill="#16d769" stroke="#16d769" points="276.567,-194.88 277.578,-183.961 274.944,-190.151 273.321,-185.422 273.321,-185.422 273.321,-185.422 274.944,-190.151 269.065,-186.882 276.567,-194.88 276.567,-194.88"/>
</g>
<!-- UserReadMemo -->
<g id="node6" class="node"><title>UserReadMemo</title>
<ellipse fill="none" stroke="black" cx="361" cy="-19" rx="86.9741" ry="18.3848"/>
<text text-anchor="middle" x="361" y="-15.4" font-family="Times Roman,serif" font-size="14.00">UserReadMemo</text>
</g>
<!-- User&#45;&gt;UserReadMemo -->
<g id="edge8" class="edge"><title>User&#45;&gt;UserReadMemo</title>
<path fill="none" stroke="#348810" d="M317.985,-244.509C336.431,-214.65 365.677,-161.972 377,-112 381.888,-90.4297 377.171,-65.7468 371.62,-47.2327"/>
<ellipse fill="none" stroke="#348810" cx="315.67" cy="-248.203" rx="4.00002" ry="4.00002"/>
<polygon fill="#348810" stroke="#348810" points="371.594,-47.152 372.786,-36.2512 370.05,-42.3963 368.506,-37.6406 368.506,-37.6406 368.506,-37.6406 370.05,-42.3963 364.226,-39.0301 371.594,-47.152 371.594,-47.152"/>
</g>
<!-- Memo&#45;&gt;UserReadMemo -->
<g id="edge10" class="edge"><title>Memo&#45;&gt;UserReadMemo</title>
<path fill="none" stroke="#e6a60d" d="M338.856,-67.1947C341.865,-60.6457 345.112,-53.5801 348.167,-46.9309"/>
<ellipse fill="none" stroke="#e6a60d" cx="337.075" cy="-71.0731" rx="4.00002" ry="4.00002"/>
<polygon fill="#e6a60d" stroke="#e6a60d" points="348.281,-46.6825 356.545,-39.4745 350.368,-42.1391 352.456,-37.5957 352.456,-37.5957 352.456,-37.5957 350.368,-42.1391 348.367,-35.7169 348.281,-46.6825 348.281,-46.6825"/>
</g>
<!-- Group&#45;&gt;Membership -->
<g id="edge12" class="edge"><title>Group&#45;&gt;Membership</title>
<path fill="none" stroke="#5a236f" d="M245.418,-143.854C237.955,-135.851 229.55,-126.836 221.912,-118.645"/>
<ellipse fill="none" stroke="#5a236f" cx="248.269" cy="-146.911" rx="4.00002" ry="4.00002"/>
<polygon fill="#5a236f" stroke="#5a236f" points="221.699,-118.416 218.171,-108.034 218.289,-114.759 214.879,-111.102 214.879,-111.102 214.879,-111.102 218.289,-114.759 211.588,-114.171 221.699,-118.416 221.699,-118.416"/>
</g>
<!-- Group&#45;&gt;Memo -->
<g id="edge14" class="edge"><title>Group&#45;&gt;Memo</title>
<path fill="none" stroke="#bc2e49" d="M286.385,-143.091C292.787,-135.196 299.929,-126.388 306.417,-118.386"/>
<ellipse fill="none" stroke="#bc2e49" cx="283.738" cy="-146.356" rx="4.00002" ry="4.00002"/>
<polygon fill="#bc2e49" stroke="#bc2e49" points="306.585,-118.179 316.378,-113.245 309.734,-114.295 312.883,-110.411 312.883,-110.411 312.883,-110.411 309.734,-114.295 309.387,-107.577 306.585,-118.179 306.585,-118.179"/>
</g>
</g>
</svg>
