<?xml version="1.0" encoding="UTF-8" standalone="no"?>
<!DOCTYPE svg PUBLIC "-//W3C//DTD SVG 1.1//EN"
 "http://www.w3.org/Graphics/SVG/1.1/DTD/svg11.dtd">
<!-- Generated by graphviz version 2.26.3 (20100126.1600)
 -->
<!-- Title: models_diagram Pages: 1 -->
<svg width="417pt" height="250pt"
 viewBox="0.00 0.00 417.00 250.00" xmlns="http://www.w3.org/2000/svg" xmlns:xlink="http://www.w3.org/1999/xlink">
<g id="graph1" class="graph" transform="scale(1 1) rotate(0) translate(4 246)">
<title>models_diagram</title>
<polygon fill="white" stroke="white" points="-4,5 -4,-246 414,-246 414,5 -4,5"/>
<!-- _diagram_info -->
<g id="node1" class="node"><title>_diagram_info</title>
<text text-anchor="start" x="8" y="-225.8" font-family="Times Roman,serif" font-size="13.00">Models diagram</text>
<text text-anchor="start" x="8" y="-208.8" font-family="Times Roman,serif" font-size="13.00">Date: Apr 14 2013 &#45; 10:37</text>
<text text-anchor="start" x="8" y="-191.8" font-family="Times Roman,serif" font-size="13.00">Migration version: 20130330014356</text>
<text text-anchor="start" x="8" y="-174.8" font-family="Times Roman,serif" font-size="13.00">Generated by RailRoady 1.1.0</text>
<text text-anchor="start" x="8" y="-157.8" font-family="Times Roman,serif" font-size="13.00">http://railroady.prestonlee.com</text>
</g>
<!-- Membership -->
<g id="node2" class="node"><title>Membership</title>
<ellipse fill="none" stroke="black" cx="237" cy="-19" rx="70.2092" ry="18.3848"/>
<text text-anchor="middle" x="237" y="-15.4" font-family="Times Roman,serif" font-size="14.00">Membership</text>
</g>
<!-- User -->
<g id="node3" class="node"><title>User</title>
<ellipse fill="none" stroke="black" cx="302" cy="-195" rx="33.9411" ry="18.3848"/>
<text text-anchor="middle" x="302" y="-191.4" font-family="Times Roman,serif" font-size="14.00">User</text>
</g>
<!-- User&#45;&gt;Membership -->
<g id="edge2" class="edge"><title>User&#45;&gt;Membership</title>
<path fill="none" stroke="#48b5c0" d="M284.14,-170.985C273.17,-155.05 259.776,-133.233 252,-112 244.395,-91.235 240.639,-66.4605 238.788,-47.705"/>
<ellipse fill="none" stroke="#48b5c0" cx="286.679" cy="-174.597" rx="4.00002" ry="4.00002"/>
<polygon fill="#48b5c0" stroke="#48b5c0" points="238.785,-47.6642 242.406,-37.3137 238.354,-42.6828 237.923,-37.7014 237.923,-37.7014 237.923,-37.7014 238.354,-42.6828 233.44,-38.089 238.785,-47.6642 238.785,-47.6642"/>
</g>
<!-- Memo -->
<g id="node4" class="node"><title>Memo</title>
<ellipse fill="none" stroke="black" cx="368" cy="-19" rx="41.0122" ry="18.3848"/>
<text text-anchor="middle" x="368" y="-15.4" font-family="Times Roman,serif" font-size="14.00">Memo</text>
</g>
<!-- User&#45;&gt;Memo -->
<g id="edge6" class="edge"><title>User&#45;&gt;Memo</title>
<path fill="none" stroke="#ced040" d="M319.785,-170.957C330.724,-155.011 344.113,-133.192 352,-112 359.727,-91.2389 363.755,-66.4642 365.836,-47.7076"/>
<ellipse fill="none" stroke="#ced040" cx="317.255" cy="-174.571" rx="4.00002" ry="4.00002"/>
<polygon fill="#ced040" stroke="#ced040" points="365.841,-47.6546 371.304,-38.1466 366.333,-42.679 366.826,-37.7033 366.826,-37.7033 366.826,-37.7033 366.333,-42.679 362.348,-37.26 365.841,-47.6546 365.841,-47.6546"/>
</g>
<!-- Group -->
<g id="node5" class="node"><title>Group</title>
<ellipse fill="none" stroke="black" cx="302" cy="-93" rx="41.2167" ry="18.3848"/>
<text text-anchor="middle" x="302" y="-89.4" font-family="Times Roman,serif" font-size="14.00">Group</text>
</g>
<!-- User&#45;&gt;Group -->
<g id="edge4" class="edge"><title>User&#45;&gt;Group</title>
<path fill="none" stroke="#8bd587" d="M302,-166.054C302,-152.256 302,-135.791 302,-121.987"/>
<polygon fill="#8bd587" stroke="#8bd587" points="302,-166.292 297.5,-176.292 302,-171.292 302,-176.292 302,-176.292 302,-176.292 302,-171.292 306.5,-176.292 302,-166.292 302,-166.292"/>
<polygon fill="#8bd587" stroke="#8bd587" points="302,-121.59 306.5,-111.59 302,-116.59 302,-111.59 302,-111.59 302,-111.59 302,-116.59 297.5,-111.59 302,-121.59 302,-121.59"/>
</g>
<!-- Group&#45;&gt;Membership -->
<g id="edge8" class="edge"><title>Group&#45;&gt;Membership</title>
<path fill="none" stroke="#cb8457" d="M281.125,-69.2351C274.279,-61.4412 266.641,-52.7448 259.668,-44.8071"/>
<ellipse fill="none" stroke="#cb8457" cx="283.956" cy="-72.4578" rx="4.00002" ry="4.00002"/>
<polygon fill="#cb8457" stroke="#cb8457" points="259.572,-44.6971 256.353,-34.2141 256.272,-40.9405 252.972,-37.1839 252.972,-37.1839 252.972,-37.1839 256.272,-40.9405 249.591,-40.1536 259.572,-44.6971 259.572,-44.6971"/>
</g>
<!-- Group&#45;&gt;Memo -->
<g id="edge10" class="edge"><title>Group&#45;&gt;Memo</title>
<path fill="none" stroke="#e61bc2" d="M322.766,-69.7167C330.072,-61.525 338.31,-52.2885 345.735,-43.9641"/>
<ellipse fill="none" stroke="#e61bc2" cx="319.97" cy="-72.8517" rx="4.00002" ry="4.00002"/>
<polygon fill="#e61bc2" stroke="#e61bc2" points="345.891,-43.7893 355.905,-39.3216 349.219,-40.0578 352.547,-36.3263 352.547,-36.3263 352.547,-36.3263 349.219,-40.0578 349.188,-33.3311 345.891,-43.7893 345.891,-43.7893"/>
</g>
</g>
</svg>
