<?xml version="1.0" encoding="UTF-8" standalone="no"?>
<!DOCTYPE svg PUBLIC "-//W3C//DTD SVG 1.1//EN"
 "http://www.w3.org/Graphics/SVG/1.1/DTD/svg11.dtd">
<!-- Generated by graphviz version 2.26.3 (20100126.1600)
 -->
<!-- Title: models_diagram Pages: 1 -->
<svg width="600pt" height="782pt"
 viewBox="0.00 0.00 600.00 782.00" xmlns="http://www.w3.org/2000/svg" xmlns:xlink="http://www.w3.org/1999/xlink">
<g id="graph1" class="graph" transform="scale(1 1) rotate(0) translate(4 778)">
<title>models_diagram</title>
<polygon fill="white" stroke="white" points="-4,5 -4,-778 597,-778 597,5 -4,5"/>
<!-- _diagram_info -->
<g id="node1" class="node"><title>_diagram_info</title>
<text text-anchor="start" x="8" y="-705.8" font-family="Times Roman,serif" font-size="13.00">Models diagram</text>
<text text-anchor="start" x="8" y="-688.8" font-family="Times Roman,serif" font-size="13.00">Date: Apr 28 2013 &#45; 11:25</text>
<text text-anchor="start" x="8" y="-671.8" font-family="Times Roman,serif" font-size="13.00">Migration version: 20130414192130</text>
<text text-anchor="start" x="8" y="-654.8" font-family="Times Roman,serif" font-size="13.00">Generated by RailRoady 1.1.0</text>
<text text-anchor="start" x="8" y="-637.8" font-family="Times Roman,serif" font-size="13.00">http://railroady.prestonlee.com</text>
</g>
<!-- Membership -->
<g id="node2" class="node"><title>Membership</title>
<polyline fill="none" stroke="black" points="141.5,-208 282.5,-208 "/>
<path fill="none" stroke="black" d="M282.5,-208C288.5,-208 294.5,-214 294.5,-220"/>
<polyline fill="none" stroke="black" points="294.5,-220 294.5,-338 "/>
<path fill="none" stroke="black" d="M294.5,-338C294.5,-344 288.5,-350 282.5,-350"/>
<polyline fill="none" stroke="black" points="282.5,-350 141.5,-350 "/>
<path fill="none" stroke="black" d="M141.5,-350C135.5,-350 129.5,-344 129.5,-338"/>
<polyline fill="none" stroke="black" points="129.5,-338 129.5,-220 "/>
<path fill="none" stroke="black" d="M129.5,-220C129.5,-214 135.5,-208 141.5,-208"/>
<text text-anchor="middle" x="212" y="-333.4" font-family="Times Roman,serif" font-size="14.00">Membership</text>
<polyline fill="none" stroke="black" points="129.5,-324 294.5,-324 "/>
<text text-anchor="start" x="137.5" y="-307.4" font-family="Times Roman,serif" font-size="14.00">id :integer</text>
<text text-anchor="start" x="137.5" y="-289.4" font-family="Times Roman,serif" font-size="14.00">user_id :integer</text>
<text text-anchor="start" x="137.5" y="-271.4" font-family="Times Roman,serif" font-size="14.00">group_id :integer</text>
<text text-anchor="start" x="137.5" y="-253.4" font-family="Times Roman,serif" font-size="14.00">admin :boolean</text>
<text text-anchor="start" x="137.5" y="-235.4" font-family="Times Roman,serif" font-size="14.00">created_at :datetime</text>
<text text-anchor="start" x="137.5" y="-217.4" font-family="Times Roman,serif" font-size="14.00">updated_at :datetime</text>
</g>
<!-- User -->
<g id="node3" class="node"><title>User</title>
<polyline fill="none" stroke="black" points="280,-577 480,-577 "/>
<path fill="none" stroke="black" d="M480,-577C486,-577 492,-583 492,-589"/>
<polyline fill="none" stroke="black" points="492,-589 492,-761 "/>
<path fill="none" stroke="black" d="M492,-761C492,-767 486,-773 480,-773"/>
<polyline fill="none" stroke="black" points="480,-773 280,-773 "/>
<path fill="none" stroke="black" d="M280,-773C274,-773 268,-767 268,-761"/>
<polyline fill="none" stroke="black" points="268,-761 268,-589 "/>
<path fill="none" stroke="black" d="M268,-589C268,-583 274,-577 280,-577"/>
<text text-anchor="middle" x="380" y="-756.4" font-family="Times Roman,serif" font-size="14.00">User</text>
<polyline fill="none" stroke="black" points="268,-747 492,-747 "/>
<text text-anchor="start" x="276" y="-730.4" font-family="Times Roman,serif" font-size="14.00">id :integer</text>
<text text-anchor="start" x="276" y="-712.4" font-family="Times Roman,serif" font-size="14.00">first_name :string</text>
<text text-anchor="start" x="276" y="-694.4" font-family="Times Roman,serif" font-size="14.00">last_name :string</text>
<text text-anchor="start" x="276" y="-676.4" font-family="Times Roman,serif" font-size="14.00">email :string</text>
<text text-anchor="start" x="276" y="-658.4" font-family="Times Roman,serif" font-size="14.00">password :string</text>
<text text-anchor="start" x="276" y="-640.4" font-family="Times Roman,serif" font-size="14.00">created_at :datetime</text>
<text text-anchor="start" x="276" y="-622.4" font-family="Times Roman,serif" font-size="14.00">updated_at :datetime</text>
<text text-anchor="start" x="276" y="-604.4" font-family="Times Roman,serif" font-size="14.00">password_confirmation :string</text>
<text text-anchor="start" x="276" y="-586.4" font-family="Times Roman,serif" font-size="14.00">api_token :string</text>
</g>
<!-- User&#45;&gt;Membership -->
<g id="edge2" class="edge"><title>User&#45;&gt;Membership</title>
<path fill="none" stroke="#735210" d="M261.961,-574.8C248.806,-561.46 238.507,-549.229 234,-540 206.816,-484.339 202.333,-414.014 204.089,-360.39"/>
<ellipse fill="none" stroke="#735210" cx="264.931" cy="-577.757" rx="4.00002" ry="4.00002"/>
<polygon fill="#735210" stroke="#735210" points="204.095,-360.23 208.998,-350.421 204.298,-355.234 204.502,-350.238 204.502,-350.238 204.502,-350.238 204.298,-355.234 200.005,-350.056 204.095,-360.23 204.095,-360.23"/>
</g>
<!-- Memo -->
<g id="node4" class="node"><title>Memo</title>
<polyline fill="none" stroke="black" points="324,-181 546,-181 "/>
<path fill="none" stroke="black" d="M546,-181C552,-181 558,-187 558,-193"/>
<polyline fill="none" stroke="black" points="558,-193 558,-365 "/>
<path fill="none" stroke="black" d="M558,-365C558,-371 552,-377 546,-377"/>
<polyline fill="none" stroke="black" points="546,-377 324,-377 "/>
<path fill="none" stroke="black" d="M324,-377C318,-377 312,-371 312,-365"/>
<polyline fill="none" stroke="black" points="312,-365 312,-193 "/>
<path fill="none" stroke="black" d="M312,-193C312,-187 318,-181 324,-181"/>
<text text-anchor="middle" x="435" y="-360.4" font-family="Times Roman,serif" font-size="14.00">Memo</text>
<polyline fill="none" stroke="black" points="312,-351 558,-351 "/>
<text text-anchor="start" x="320" y="-334.4" font-family="Times Roman,serif" font-size="14.00">id :integer</text>
<text text-anchor="start" x="320" y="-316.4" font-family="Times Roman,serif" font-size="14.00">title :string</text>
<text text-anchor="start" x="320" y="-298.4" font-family="Times Roman,serif" font-size="14.00">description :string</text>
<text text-anchor="start" x="320" y="-280.4" font-family="Times Roman,serif" font-size="14.00">due_date :date</text>
<text text-anchor="start" x="320" y="-262.4" font-family="Times Roman,serif" font-size="14.00">group_id :integer</text>
<text text-anchor="start" x="320" y="-244.4" font-family="Times Roman,serif" font-size="14.00">user_id :integer</text>
<text text-anchor="start" x="320" y="-226.4" font-family="Times Roman,serif" font-size="14.00">created_at :datetime</text>
<text text-anchor="start" x="320" y="-208.4" font-family="Times Roman,serif" font-size="14.00">updated_at :datetime</text>
<text text-anchor="start" x="320" y="-190.4" font-family="Times Roman,serif" font-size="14.00">user_read_memos_count :integer</text>
</g>
<!-- User&#45;&gt;Memo -->
<g id="edge6" class="edge"><title>User&#45;&gt;Memo</title>
<path fill="none" stroke="#3072fd" d="M410.355,-568.6C412.498,-558.98 414.428,-549.344 416,-540 424.372,-490.225 429.056,-434.496 431.676,-387.356"/>
<ellipse fill="none" stroke="#3072fd" cx="409.401" cy="-572.772" rx="4.00001" ry="4.00001"/>
<polygon fill="#3072fd" stroke="#3072fd" points="431.689,-387.11 436.714,-377.363 431.955,-382.117 432.22,-377.124 432.22,-377.124 432.22,-377.124 431.955,-382.117 427.726,-376.885 431.689,-387.11 431.689,-387.11"/>
</g>
<!-- Group -->
<g id="node5" class="node"><title>Group</title>
<polyline fill="none" stroke="black" points="254.5,-415 395.5,-415 "/>
<path fill="none" stroke="black" d="M395.5,-415C401.5,-415 407.5,-421 407.5,-427"/>
<polyline fill="none" stroke="black" points="407.5,-427 407.5,-527 "/>
<path fill="none" stroke="black" d="M407.5,-527C407.5,-533 401.5,-539 395.5,-539"/>
<polyline fill="none" stroke="black" points="395.5,-539 254.5,-539 "/>
<path fill="none" stroke="black" d="M254.5,-539C248.5,-539 242.5,-533 242.5,-527"/>
<polyline fill="none" stroke="black" points="242.5,-527 242.5,-427 "/>
<path fill="none" stroke="black" d="M242.5,-427C242.5,-421 248.5,-415 254.5,-415"/>
<text text-anchor="middle" x="325" y="-522.4" font-family="Times Roman,serif" font-size="14.00">Group</text>
<polyline fill="none" stroke="black" points="242.5,-513 407.5,-513 "/>
<text text-anchor="start" x="250.5" y="-496.4" font-family="Times Roman,serif" font-size="14.00">id :integer</text>
<text text-anchor="start" x="250.5" y="-478.4" font-family="Times Roman,serif" font-size="14.00">name :string</text>
<text text-anchor="start" x="250.5" y="-460.4" font-family="Times Roman,serif" font-size="14.00">expiration :date</text>
<text text-anchor="start" x="250.5" y="-442.4" font-family="Times Roman,serif" font-size="14.00">created_at :datetime</text>
<text text-anchor="start" x="250.5" y="-424.4" font-family="Times Roman,serif" font-size="14.00">updated_at :datetime</text>
</g>
<!-- User&#45;&gt;Group -->
<g id="edge4" class="edge"><title>User&#45;&gt;Group</title>
<path fill="none" stroke="#d33a5e" d="M349.987,-566.953C348.298,-560.873 346.622,-554.838 344.984,-548.942"/>
<polygon fill="#d33a5e" stroke="#d33a5e" points="350.065,-567.235 348.406,-578.075 351.403,-572.053 352.742,-576.87 352.742,-576.87 352.742,-576.87 351.403,-572.053 357.078,-575.666 350.065,-567.235 350.065,-567.235"/>
<polygon fill="#d33a5e" stroke="#d33a5e" points="344.945,-548.802 346.604,-537.962 343.607,-543.984 342.269,-539.167 342.269,-539.167 342.269,-539.167 343.607,-543.984 337.933,-540.371 344.945,-548.802 344.945,-548.802"/>
</g>
<!-- UserReadMemo -->
<g id="node6" class="node"><title>UserReadMemo</title>
<polyline fill="none" stroke="black" points="439.5,-1 580.5,-1 "/>
<path fill="none" stroke="black" d="M580.5,-1C586.5,-1 592.5,-7 592.5,-13"/>
<polyline fill="none" stroke="black" points="592.5,-13 592.5,-131 "/>
<path fill="none" stroke="black" d="M592.5,-131C592.5,-137 586.5,-143 580.5,-143"/>
<polyline fill="none" stroke="black" points="580.5,-143 439.5,-143 "/>
<path fill="none" stroke="black" d="M439.5,-143C433.5,-143 427.5,-137 427.5,-131"/>
<polyline fill="none" stroke="black" points="427.5,-131 427.5,-13 "/>
<path fill="none" stroke="black" d="M427.5,-13C427.5,-7 433.5,-1 439.5,-1"/>
<text text-anchor="middle" x="510" y="-126.4" font-family="Times Roman,serif" font-size="14.00">UserReadMemo</text>
<polyline fill="none" stroke="black" points="427.5,-117 592.5,-117 "/>
<text text-anchor="start" x="435.5" y="-100.4" font-family="Times Roman,serif" font-size="14.00">id :integer</text>
<text text-anchor="start" x="435.5" y="-82.4" font-family="Times Roman,serif" font-size="14.00">read :boolean</text>
<text text-anchor="start" x="435.5" y="-64.4" font-family="Times Roman,serif" font-size="14.00">user_id :integer</text>
<text text-anchor="start" x="435.5" y="-46.4" font-family="Times Roman,serif" font-size="14.00">memo_id :integer</text>
<text text-anchor="start" x="435.5" y="-28.4" font-family="Times Roman,serif" font-size="14.00">created_at :datetime</text>
<text text-anchor="start" x="435.5" y="-10.4" font-family="Times Roman,serif" font-size="14.00">updated_at :datetime</text>
</g>
<!-- User&#45;&gt;UserReadMemo -->
<g id="edge8" class="edge"><title>User&#45;&gt;UserReadMemo</title>
<path fill="none" stroke="#397abe" d="M466.39,-570.277C505.302,-516.363 546.95,-447.476 567,-378 591.401,-293.451 588.158,-265.419 567,-180 564.73,-170.836 561.525,-161.592 557.779,-152.573"/>
<ellipse fill="none" stroke="#397abe" cx="464.014" cy="-573.543" rx="4.00002" ry="4.00002"/>
<polygon fill="#397abe" stroke="#397abe" points="557.715,-152.426 557.817,-141.461 555.705,-147.848 553.696,-143.269 553.696,-143.269 553.696,-143.269 555.705,-147.848 549.575,-145.078 557.715,-152.426 557.715,-152.426"/>
</g>
<!-- Memo&#45;&gt;UserReadMemo -->
<g id="edge10" class="edge"><title>Memo&#45;&gt;UserReadMemo</title>
<path fill="none" stroke="#f032fb" d="M473.341,-173.18C475.816,-166.347 478.287,-159.528 480.71,-152.842"/>
<ellipse fill="none" stroke="#f032fb" cx="471.886" cy="-177.195" rx="4.00001" ry="4.00001"/>
<polygon fill="#f032fb" stroke="#f032fb" points="480.813,-152.556 488.45,-144.687 482.516,-147.855 484.22,-143.154 484.22,-143.154 484.22,-143.154 482.516,-147.855 479.989,-141.621 480.813,-152.556 480.813,-152.556"/>
</g>
<!-- Group&#45;&gt;Membership -->
<g id="edge12" class="edge"><title>Group&#45;&gt;Membership</title>
<path fill="none" stroke="#21aa69" d="M285.383,-407.583C276.436,-391.906 266.867,-375.138 257.693,-359.063"/>
<ellipse fill="none" stroke="#21aa69" cx="287.573" cy="-411.421" rx="4.00002" ry="4.00002"/>
<polygon fill="#21aa69" stroke="#21aa69" points="257.6,-358.9 256.551,-347.984 255.121,-354.557 252.643,-350.215 252.643,-350.215 252.643,-350.215 255.121,-354.557 248.734,-352.445 257.6,-358.9 257.6,-358.9"/>
</g>
<!-- Group&#45;&gt;Memo -->
<g id="edge14" class="edge"><title>Group&#45;&gt;Memo</title>
<path fill="none" stroke="#ac538a" d="M363.466,-407.76C367.339,-400.79 371.332,-393.603 375.358,-386.355"/>
<ellipse fill="none" stroke="#ac538a" cx="361.445" cy="-411.398" rx="4.00002" ry="4.00002"/>
<polygon fill="#ac538a" stroke="#ac538a" points="375.613,-385.896 384.403,-379.34 378.041,-381.526 380.47,-377.155 380.47,-377.155 380.47,-377.155 378.041,-381.526 376.536,-374.969 375.613,-385.896 375.613,-385.896"/>
</g>
</g>
</svg>
